<svg width="117" height="114" viewBox="0 0 117 114" fill="none" xmlns="http://www.w3.org/2000/svg">
<path d="M63.9654 89.899C63.7973 89.7342 63.6641 89.5387 63.5734 89.3236C63.4827 89.1085 63.4362 88.8781 63.4367 88.6454C63.4372 88.4127 63.4845 88.1825 63.5761 87.9677C63.6677 87.753 63.8016 87.558 63.9704 87.3939L93.5354 58.6087L18.2202 58.4587C17.7398 58.4578 17.2795 58.2703 16.9405 57.9376C16.6015 57.605 16.4116 57.1543 16.4126 56.6847C16.4135 56.2152 16.6052 55.7653 16.9455 55.4339C17.2858 55.1026 17.7469 54.917 18.2272 54.9179L93.5424 55.0679L64.0922 26.1651C63.9243 26.0003 63.7912 25.8048 63.7006 25.5897C63.6099 25.3746 63.5635 25.1442 63.564 24.9115C63.5644 24.6789 63.6118 24.4487 63.7033 24.2339C63.7948 24.0192 63.9286 23.8242 64.0972 23.66C64.2658 23.4959 64.4659 23.3658 64.6859 23.2772C64.9059 23.1886 65.1417 23.1433 65.3796 23.1438C65.6176 23.1442 65.8532 23.1905 66.0728 23.28C66.2925 23.3694 66.492 23.5003 66.66 23.6651L99.1966 55.597C99.3647 55.7617 99.4979 55.9572 99.5886 56.1724C99.6793 56.3875 99.7257 56.6179 99.7253 56.8506C99.7248 57.0832 99.6774 57.3135 99.5859 57.5283C99.4943 57.743 99.3603 57.938 99.1916 58.1021L66.5281 89.9041C66.3596 90.0684 66.1596 90.1986 65.9395 90.2872C65.7195 90.3759 65.4837 90.4213 65.2457 90.4208C65.0077 90.4203 64.7721 90.374 64.5524 90.2845C64.3327 90.1949 64.1332 90.0639 63.9654 89.899Z" fill="black"/>
</svg>
