<?xml version="1.0" standalone="no"?>
<!DOCTYPE svg PUBLIC "-//W3C//DTD SVG 20010904//EN"
 "http://www.w3.org/TR/2001/REC-SVG-20010904/DTD/svg10.dtd">
<svg version="1.0" xmlns="http://www.w3.org/2000/svg"
 width="512.000000pt" height="512.000000pt" viewBox="0 0 512.000000 512.000000"
 preserveAspectRatio="xMidYMid meet">

<g transform="translate(0.000000,512.000000) scale(0.100000,-0.100000)"
fill="#000000" stroke="none">
<path d="M3145 4979 c-183 -20 -381 -91 -526 -190 -122 -82 -249 -219 -319
-342 -18 -32 -34 -57 -35 -55 -2 2 -8 48 -15 103 -29 253 -68 417 -106 442
-21 13 -29 11 -106 -22 -120 -53 -145 -71 -178 -129 -36 -62 -40 -135 -11
-219 36 -105 71 -330 71 -460 l0 -55 -82 -11 c-853 -122 -1456 -631 -1647
-1392 -101 -401 -74 -856 76 -1259 207 -558 625 -978 1142 -1150 372 -124 771
-128 1201 -12 103 28 106 28 145 11 65 -29 213 -69 315 -85 128 -22 392 -21
530 0 131 20 344 76 447 117 535 212 863 660 934 1279 21 186 -4 541 -42 586
-6 8 -20 14 -30 14 -10 0 -207 -60 -438 -134 -230 -74 -428 -137 -438 -140
-17 -5 -18 6 -18 227 0 203 -3 246 -23 347 -90 444 -334 859 -677 1150 -277
235 -645 401 -973 438 l-67 7 3 40 c8 96 99 311 174 409 43 56 107 123 140
147 l28 20 50 -27 c91 -49 153 -136 201 -280 37 -111 85 -200 163 -305 185
-246 436 -394 771 -455 198 -36 667 -20 712 24 13 13 15 31 9 101 -20 258
-121 554 -259 761 -61 91 -199 231 -284 289 -238 160 -562 241 -838 210z m321
-114 c105 -19 241 -63 321 -104 l58 -30 -90 -1 c-87 0 -181 -17 -234 -43 -17
-8 -27 -22 -29 -40 -7 -56 31 -69 118 -43 125 37 282 24 410 -35 61 -28 78
-42 124 -103 47 -61 135 -209 136 -227 0 -3 -31 5 -69 18 -91 30 -190 38 -289
24 l-80 -12 -83 67 c-125 100 -295 209 -433 279 -151 77 -384 155 -460 155
-54 0 -31 19 58 49 183 60 368 76 542 46z m-498 -226 c40 -10 120 -37 178 -60
98 -40 107 -45 132 -88 26 -44 27 -51 26 -186 -1 -77 -6 -193 -10 -258 l-9
-119 -64 64 c-109 108 -212 272 -248 392 -22 72 -74 173 -122 234 l-42 52 43
-6 c24 -4 76 -15 116 -25z m563 -270 c148 -102 267 -200 444 -365 87 -82 162
-144 173 -144 29 0 55 35 48 64 -3 13 -61 76 -128 140 l-121 116 64 0 c81 0
165 -22 240 -61 91 -49 106 -70 133 -190 29 -129 41 -225 29 -232 -19 -12
-321 -30 -385 -23 -55 6 -72 13 -107 42 -23 20 -54 62 -72 99 -26 54 -32 79
-37 157 -2 51 -9 99 -15 106 -13 17 -62 15 -77 -3 -35 -43 -17 -209 34 -311
l32 -63 -25 6 c-14 3 -66 19 -116 35 -223 71 -255 117 -239 348 5 69 9 176 9
238 0 61 3 112 6 112 3 0 53 -32 110 -71z m-1615 -451 c-3 -13 -8 -77 -11
-144 l-7 -121 32 -27 c48 -40 98 -58 165 -59 76 -1 99 7 114 39 6 14 21 95 33
180 l22 155 45 -7 c525 -72 989 -364 1286 -809 161 -241 258 -490 300 -770 15
-102 19 -376 7 -469 l-7 -50 -320 -102 c-176 -56 -626 -200 -1000 -319 -374
-119 -690 -223 -702 -231 -31 -19 -29 -47 7 -123 118 -248 403 -566 633 -704
66 -40 67 -39 -68 -67 -439 -90 -930 -14 -1316 205 -145 82 -250 164 -379 294
-143 144 -229 265 -319 446 -143 287 -202 545 -202 880 0 462 145 867 435
1212 221 264 564 471 931 563 100 25 230 47 288 49 34 1 37 -1 33 -21z m2957
-1964 c5 -38 6 -161 4 -274 -7 -287 -47 -479 -139 -664 -173 -350 -533 -614
-988 -726 -165 -40 -314 -54 -494 -47 -440 18 -768 184 -1061 537 -102 124
-224 316 -209 330 5 4 43 19 85 33 l76 25 79 -121 c168 -258 421 -463 694
-562 193 -69 443 -93 659 -61 131 20 309 71 432 125 362 159 598 470 690 911
16 80 23 156 28 319 l6 214 55 17 c30 10 60 17 65 16 6 -2 14 -34 18 -72z
m-246 -201 c-5 -207 -15 -271 -63 -418 -58 -179 -145 -317 -288 -461 -193
-194 -418 -307 -696 -349 -406 -62 -799 69 -1090 364 -99 99 -221 261 -224
298 -1 11 40 28 164 68 218 69 1185 379 1730 554 239 76 443 140 454 140 17 1
18 -8 13 -196z"/>
</g>
</svg>
