<svg width="25" height="20" viewBox="0 0 39 38" fill="none" xmlns="http://www.w3.org/2000/svg">
<path d="M34.6667 0C35.8159 0 36.9181 0.44484 37.7308 1.23666C38.5435 2.02848 39 3.10242 39 4.22222V33.7778C39 34.8976 38.5435 35.9715 37.7308 36.7633C36.9181 37.5552 35.8159 38 34.6667 38H4.33333C3.18406 38 2.08186 37.5552 1.2692 36.7633C0.456546 35.9715 0 34.8976 0 33.7778V4.22222C0 3.10242 0.456546 2.02848 1.2692 1.23666C2.08186 0.44484 3.18406 0 4.33333 0H34.6667ZM33.5833 32.7222V21.5333C33.5833 19.7081 32.8392 17.9575 31.5145 16.6669C30.1899 15.3762 28.3933 14.6511 26.52 14.6511C24.6783 14.6511 22.5333 15.7489 21.4933 17.3956V15.0522H15.4483V32.7222H21.4933V22.3144C21.4933 20.6889 22.8367 19.3589 24.505 19.3589C25.3095 19.3589 26.081 19.6703 26.6499 20.2246C27.2188 20.7788 27.5383 21.5306 27.5383 22.3144V32.7222H33.5833ZM8.40667 11.7378C9.37206 11.7378 10.2979 11.3641 10.9805 10.699C11.6632 10.0339 12.0467 9.13175 12.0467 8.19111C12.0467 6.22778 10.4217 4.62333 8.40667 4.62333C7.43553 4.62333 6.50417 4.99922 5.81748 5.66831C5.13078 6.3374 4.745 7.24488 4.745 8.19111C4.745 10.1544 6.39167 11.7378 8.40667 11.7378ZM11.4183 32.7222V15.0522H5.41667V32.7222H11.4183Z" fill="white"/>
</svg>
