<svg width="25" height="30" viewBox="0 0 73 67" fill="none" xmlns="http://www.w3.org/2000/svg">
<path d="M68.3157 16.75C65.9737 17.727 63.4491 18.3691 60.8332 18.6762C63.5099 17.1966 65.5783 14.8516 66.5516 12.032C64.027 13.4279 61.2287 14.405 58.2782 14.9633C55.8753 12.5625 52.4991 11.1666 48.6666 11.1666C41.5187 11.1666 35.6787 16.5266 35.6787 23.1429C35.6787 24.092 35.8003 25.0133 36.0133 25.8787C25.1849 25.3762 15.5428 20.6025 9.12492 13.372C7.9995 15.1308 7.36075 17.1966 7.36075 19.3741C7.36075 23.5337 9.642 27.2187 13.1703 29.3125C11.0107 29.3125 9.00325 28.7541 7.23908 27.9166V28.0004C7.23908 33.807 11.7407 38.6645 17.7024 39.7533C15.7884 40.234 13.779 40.3009 11.832 39.9487C12.6581 42.3285 14.2761 44.4109 16.4584 45.9031C18.6408 47.3953 21.2777 48.2223 23.9987 48.2679C19.3864 51.6191 13.6692 53.4305 7.78658 53.4045C6.75242 53.4045 5.71825 53.3487 4.68408 53.237C10.4632 56.6429 17.3374 58.625 24.6982 58.625C48.6666 58.625 61.837 40.3675 61.837 24.5387C61.837 24.0083 61.837 23.5058 61.8066 22.9754C64.3616 21.3004 66.5516 19.1787 68.3157 16.75Z" fill="white"/>
</svg>
