<svg width="25" height="30" viewBox="0 0 58 57" fill="none" xmlns="http://www.w3.org/2000/svg">
<path d="M18.8499 4.75H39.1499C46.8833 4.75 53.1666 10.925 53.1666 18.525V38.475C53.1666 42.1284 51.6898 45.6321 49.0612 48.2154C46.4326 50.7987 42.8674 52.25 39.1499 52.25H18.8499C11.1166 52.25 4.83325 46.075 4.83325 38.475V18.525C4.83325 14.8716 6.31 11.3679 8.93864 8.7846C11.5673 6.20129 15.1325 4.75 18.8499 4.75ZM18.3666 9.5C16.0592 9.5 13.8463 10.4008 12.2148 12.0042C10.5832 13.6077 9.66658 15.7824 9.66658 18.05V38.95C9.66658 43.6762 13.5574 47.5 18.3666 47.5H39.6332C41.9406 47.5 44.1535 46.5992 45.7851 44.9958C47.4166 43.3923 48.3332 41.2176 48.3332 38.95V18.05C48.3332 13.3237 44.4424 9.5 39.6332 9.5H18.3666ZM41.6874 13.0625C42.4886 13.0625 43.257 13.3753 43.8235 13.932C44.39 14.4888 44.7082 15.2439 44.7082 16.0312C44.7082 16.8186 44.39 17.5737 43.8235 18.1305C43.257 18.6872 42.4886 19 41.6874 19C40.8862 19 40.1179 18.6872 39.5514 18.1305C38.9848 17.5737 38.6666 16.8186 38.6666 16.0312C38.6666 15.2439 38.9848 14.4888 39.5514 13.932C40.1179 13.3753 40.8862 13.0625 41.6874 13.0625ZM28.9999 16.625C32.2046 16.625 35.2781 17.8761 37.5441 20.1031C39.8102 22.3301 41.0832 25.3506 41.0832 28.5C41.0832 31.6494 39.8102 34.6699 37.5441 36.8969C35.2781 39.1239 32.2046 40.375 28.9999 40.375C25.7952 40.375 22.7218 39.1239 20.4557 36.8969C18.1896 34.6699 16.9166 31.6494 16.9166 28.5C16.9166 25.3506 18.1896 22.3301 20.4557 20.1031C22.7218 17.8761 25.7952 16.625 28.9999 16.625ZM28.9999 21.375C27.0771 21.375 25.233 22.1257 23.8734 23.4619C22.5138 24.7981 21.7499 26.6103 21.7499 28.5C21.7499 30.3897 22.5138 32.2019 23.8734 33.5381C25.233 34.8743 27.0771 35.625 28.9999 35.625C30.9227 35.625 32.7668 34.8743 34.1264 33.5381C35.4861 32.2019 36.2499 30.3897 36.2499 28.5C36.2499 26.6103 35.4861 24.7981 34.1264 23.4619C32.7668 22.1257 30.9227 21.375 28.9999 21.375Z" fill="white"/>
</svg>
